#!OML:ASF X:\für Bonn\!DataBase\2005_08_11_Bastian_Final\c3d\Bastian.ASF
:FULLY-SPECIFIED
:DEGREES
260
root 9.07427 17.3677 -2.3276 175.996 75.9325 -178.35
lowerback 31.4172 -3.81969 8.66137
upperback 17.8038 0.398032 4.18476
thorax 3.21136 1.80725 -0.19531
lowerneck -8.15532 -11.7884 -2.77813
upperneck -13.622 -14.4785 12.2153
head -1.83324 -7.25879 4.22218
rclavicle 9.54166e-015 -4.92986e-014
rhumerus -17.2453 32.415 -78.5136
rradius 30.6312
rwrist -6.5551
rhand -18.6635 2.50003
rfingers 7.12502
rthumb 7.63 -27.3423
lclavicle 9.54166e-015 -4.92986e-014
lhumerus 3.98574 -33.5072 80.8301
lradius 47.1359
lwrist 20.5396
lhand -12.7592 -10.7214
lfingers 7.12502
lthumb 13.3253 18.8326
rfemur -14.4782 -0.868629 22.4002
rtibia 39.6134
rfoot -13.7134 -8.70139
rtoes -6.21238
lfemur -6.41345 -1.90339 -19.3458
ltibia 30.7034
lfoot -10.9623 -11.2704
ltoes -15.2334
261
root 9.15829 17.3777 -2.31002 176.572 75.9303 -177.631
lowerback 30.6833 -3.68675 8.55691
upperback 17.6511 0.374698 4.12885
thorax 3.31652 1.76325 -0.205046
lowerneck -8.05728 -11.7202 -2.92989
upperneck -13.2345 -14.416 12.1958
head -1.71365 -7.21729 4.22752
rclavicle 1.43125e-014 -3.18055e-015
rhumerus -18.0734 32.2093 -79.2349
rradius 30.6774
rwrist -6.60354
rhand -18.6284 2.4936
rfingers 7.12502
rthumb 7.66379 -27.3475
lclavicle 1.43125e-014 -3.18055e-015
lhumerus 3.3232 -33.2667 81.1438
lradius 47.1565
lwrist 20.5877
lhand -12.876 -10.7257
lfingers 7.12502
lthumb 13.2127 18.8356
rfemur -13.8286 -0.795875 22.7377
rtibia 39.2151
rfoot -13.836 -8.81199
rtoes -5.78241
lfemur -5.9637 -2.01366 -19.0357
ltibia 30.6837
lfoot -11.286 -11.192
ltoes -15.8061
262
root 9.24133 17.3866 -2.29206 177.3 75.9378 -176.796
lowerback 29.6076 -3.50014 8.37653
upperback 17.5265 0.349855 4.15209
thorax 3.69476 1.71664 -0.138974
lowerneck -7.84373 -11.6424 -3.14475
upperneck -12.9086 -14.3321 12.2263
head -1.62757 -7.16851 4.2738
rclavicle 6.36111e-015 4.6118e-014
rhumerus -18.8982 32.0452 -79.8965
rradius 30.7464
rwrist -6.71194
rhand -18.5577 2.54929
rfingers 7.12502
rthumb 7.73211 -27.2893
lclavicle 6.36111e-015 4.6118e-014
lhumerus 2.65404 -32.9938 81.4844
lradius 47.1149
lwrist 20.5197
lhand -12.979 -10.6506
lfingers 7.12502
lthumb 13.1134 18.917
rfemur -13.2278 -0.716413 23.1111
rtibia 38.817
rfoot -13.9462 -8.92059
rtoes -5.26064
lfemur -5.59124 -2.12061 -18.6841
ltibia 30.7427
lfoot -11.6071 -11.1067
ltoes -16.1129
263
root 9.32268 17.3944 -2.27475 178.022 75.9409 -175.95
lowerback 28.9088 -3.37777 8.29853
upperback 17.3632 0.33655 4.12119
thorax 3.80293 1.67873 -0.132028
lowerneck -7.66764 -11.5708 -3.41061
upperneck -12.5928 -14.25 12.3015
head -1.53134 -7.11818 4.34193
rclavicle 4.77083e-014 4.13472e-014
rhumerus -19.6114 31.8713 -80.4672
rradius 30.7918
rwrist -6.83895
rhand -18.4947 2.57219
rfingers 7.12502
rthumb 7.79285 -27.2642
lclavicle 4.77083e-014 4.13472e-014
lhumerus 2.03258 -32.6744 81.8435
lradius 47.0422
lwrist 20.4102
lhand -13.0352 -10.6163
lfingers 7.12502
lthumb 13.0593 18.9549
rfemur -12.6244 -0.606659 23.4874
rtibia 38.4303
rfoot -14.012 -9.05277
rtoes -4.67308
lfemur -5.25298 -2.21955 -18.3347
ltibia 30.8748
lfoot -11.9025 -11.0545
ltoes -16.5799
264
root 9.40501 17.4009 -2.25693 178.988 75.9423 -174.874
lowerback 28.1768 -3.25944 8.27336
upperback 17.2139 0.330294 4.096
thorax 3.94914 1.65074 -0.148378
lowerneck -7.5379 -11.502 -3.62368
upperneck -12.2345 -14.1794 12.3567
head -1.41819 -7.07389 4.38911
rclavicle -1.90833e-014 -4.77083e-014
rhumerus -20.2083 31.7391 -80.9977
rradius 30.786
rwrist -6.95858
rhand -18.4104 2.5636
rfingers 7.12502
rthumb 7.87425 -27.2698
lclavicle -1.90833e-014 -4.77083e-014
lhumerus 1.47486 -32.4398 82.1123
lradius 46.9667
lwrist 20.4115
lhand -13.1331 -10.532
lfingers 7.12502
lthumb 12.9649 19.0452
rfemur -12.0396 -0.495407 23.9312
rtibia 38.0527
rfoot -14.1151 -9.19722
rtoes -4.07475
lfemur -4.97391 -2.31902 -17.928
ltibia 31.0805
lfoot -12.1074 -10.9767
ltoes -17.0468
265
root 9.48504 17.4057 -2.23872 179.708 75.932 -174.013
lowerback 27.5283 -3.15218 8.1862
upperback 17.0592 0.311599 4.0689
thorax 4.05294 1.61142 -0.130219
lowerneck -7.35876 -11.4226 -3.83246
upperneck -11.9053 -14.0968 12.3775
head -1.32783 -7.02582 4.43051
rclavicle 2.54444e-014 5.40694e-014
rhumerus -20.7689 31.7476 -81.4826
rradius 30.8088
rwrist -7.15291
rhand -18.2958 2.46609
rfingers 7.12502
rthumb 7.98485 -27.3631
lclavicle 2.54444e-014 5.40694e-014
lhumerus 0.899067 -32.0392 82.4572
lradius 46.8347
lwrist 20.3422
lhand -13.08 -10.4756
lfingers 7.12502
lthumb 13.0161 19.0983
rfemur -11.4357 -0.39822 24.3181
rtibia 37.6947
rfoot -14.2027 -9.33382
rtoes -3.38573
lfemur -4.70364 -2.48212 -17.588
ltibia 31.3469
lfoot -12.2257 -10.8385
ltoes -17.4432
266
root 9.56505 17.4105 -2.22179 180.181 75.9374 -173.423
lowerback 26.8694 -3.02431 8.07725
upperback 16.9101 0.314435 4.01834
thorax 4.17233 1.5831 -0.130286
lowerneck -7.20122 -11.3586 -4.00551
upperneck -11.5936 -14.0362 12.3732
head -1.24294 -6.98941 4.45615
rclavicle 1.90833e-014 3.18055e-014
rhumerus -21.3148 31.7998 -81.9586
rradius 30.8597
rwrist -7.49525
rhand -18.2052 2.31634
rfingers 7.12502
rthumb 8.07227 -27.5095
lclavicle 1.90833e-014 3.18055e-014
lhumerus 0.404593 -31.7034 82.7484
lradius 46.676
lwrist 20.3644
lhand -12.9267 -10.363
lfingers 7.12502
lthumb 13.1638 19.2014
rfemur -10.8586 -0.311735 24.6243
rtibia 37.3598
rfoot -14.2774 -9.43791
rtoes -2.84003
lfemur -4.49592 -2.58629 -17.3242
ltibia 31.6793
lfoot -12.3128 -10.7519
ltoes -17.8382
267
root 9.64469 17.4145 -2.20422 180.373 75.9393 -173.047
lowerback 26.3066 -2.89944 7.89331
upperback 16.7724 0.317212 3.95523
thorax 4.26238 1.5513 -0.102241
lowerneck -7.0443 -11.291 -4.15347
upperneck -11.2681 -13.9735 12.374
head -1.15535 -6.95323 4.47907
rclavicle 5.80451e-014 1.90833e-014
rhumerus -21.8103 31.7853 -82.4215
rradius 30.8513
rwrist -7.76464
rhand -18.0609 2.23893
rfingers 7.12502
rthumb 8.21155 -27.5815
lclavicle 5.80451e-014 1.90833e-014
lhumerus -0.0862411 -31.2805 83.0594
lradius 46.4728
lwrist 20.2862
lhand -12.71 -10.2391
lfingers 7.12502
lthumb 13.3727 19.3118
rfemur -10.2153 -0.223353 24.8757
rtibia 37.0566
rfoot -14.3862 -9.55224
rtoes -2.07152
lfemur -4.24866 -2.73547 -17.1328
ltibia 32.0784
lfoot -12.4165 -10.5957
ltoes -18.2652
268
root 9.72277 17.4176 -2.18692 180.415 75.9443 -172.821
lowerback 25.7817 -2.7816 7.66314
upperback 16.6387 0.311486 3.89735
thorax 4.34055 1.51177 -0.0406481
lowerneck -6.9158 -11.2192 -4.3042
upperneck -10.947 -13.907 12.318
head -1.06948 -6.91354 4.48204
rclavicle -7.95139e-015 -6.36111e-015
rhumerus -22.2542 31.8823 -82.8446
rradius 30.8513
rwrist -8.13233
rhand -17.9569 2.09277
rfingers 7.12502
rthumb 8.31196 -27.7237
lclavicle -7.95139e-015 -6.36111e-015
lhumerus -0.547946 -30.7834 83.3883
lradius 46.2226
lwrist 20.1834
lhand -12.5123 -10.1137
lfingers 7.12502
lthumb 13.5633 19.4245
rfemur -9.58808 -0.201903 25.0839
rtibia 36.781
rfoot -14.4906 -9.62941
rtoes -1.5842
lfemur -4.0748 -2.85911 -16.9794
ltibia 32.5713
lfoot -12.4507 -10.4747
ltoes -18.5681
269
root 9.80097 17.4196 -2.1703 180.368 75.9481 -172.699
lowerback 25.2618 -2.65392 7.45216
upperback 16.4881 0.323767 3.8135
thorax 4.40048 1.48253 -0.0224998
lowerneck -6.70192 -11.1523 -4.43594
upperneck -10.7018 -13.8398 12.3312
head -1.01941 -6.8791 4.51542
rclavicle -1.27222e-014 -2.70347e-014
rhumerus -22.7435 31.8823 -83.3065
rradius 30.8679
rwrist -8.54714
rhand -17.8208 1.94383
rfingers 7.12502
rthumb 8.44328 -27.8674
lclavicle -1.27222e-014 -2.70347e-014
lhumerus -1.05544 -30.3907 83.6679
lradius 45.9991
lwrist 20.1074
lhand -12.266 -10.0378
lfingers 7.12502
lthumb 13.8007 19.4844
rfemur -8.98634 -0.134482 25.2617
rtibia 36.5278
rfoot -14.6356 -9.72208
rtoes -0.997158
lfemur -3.99164 -3.01501 -16.8768
ltibia 33.1761
lfoot -12.4975 -10.2885
ltoes -19.1462
270
root 9.87802 17.4202 -2.15411 180.292 75.9347 -172.595
lowerback 24.7796 -2.53911 7.22939
upperback 16.3318 0.326623 3.73598
thorax 4.43768 1.4472 0.0110855
lowerneck -6.43834 -11.0737 -4.56673
upperneck -10.4785 -13.759 12.3148
head -0.98911 -6.83975 4.54405
rclavicle -2.94201e-014 -2.22639e-014
rhumerus -23.2378 31.8327 -83.7628
rradius 30.8751
rwrist -8.90618
rhand -17.7209 1.79153
rfingers 7.12502
rthumb 8.53965 -28.0158
lclavicle -2.94201e-014 -2.22639e-014
lhumerus -1.6207 -29.9399 83.9712
lradius 45.74
lwrist 19.9435
lhand -12.0949 -10.0477
lfingers 7.12502
lthumb 13.9655 19.4632
rfemur -8.37857 -0.0804182 25.4365
rtibia 36.2979
rfoot -14.8066 -9.82541
rtoes -0.507823
lfemur -3.98462 -3.16722 -16.7827
ltibia 33.9077
lfoot -12.4912 -10.109
ltoes -19.5817
271
root 9.95568 17.4203 -2.13904 180.254 75.9628 -172.467
lowerback 24.2881 -2.40957 7.02666
upperback 16.178 0.35331 3.64509
thorax 4.48625 1.42641 0.0149467
lowerneck -6.21437 -10.993 -4.71168
upperneck -10.2329 -13.6716 12.3701
head -0.938545 -6.79587 4.59643
rclavicle 9.54166e-015 -2.06736e-014
rhumerus -23.7171 31.7024 -84.192
rradius 30.9038
rwrist -9.22606
rhand -17.6681 1.68182
rfingers 7.12502
rthumb 8.59065 -28.1234
lclavicle 9.54166e-015 -2.06736e-014
lhumerus -2.21021 -29.5493 84.2199
lradius 45.5088
lwrist 19.9006
lhand -11.9478 -10.1439
lfingers 7.12502
lthumb 14.1073 19.3572
rfemur -7.79116 -0.0102909 25.6096
rtibia 36.0732
rfoot -15.0012 -9.90633
rtoes -0.122228
lfemur -4.08302 -3.31437 -16.6955
ltibia 34.7857
lfoot -12.4842 -9.90837
ltoes -20.0628
272
root 10.0322 17.4192 -2.12406 180.192 75.946 -172.378
lowerback 23.7983 -2.29643 6.85777
upperback 16.0274 0.370287 3.53664
thorax 4.54038 1.4056 -0.0162318
lowerneck -6.07689 -10.9249 -4.79432
upperneck -9.93989 -13.6063 12.4011
head -0.862323 -6.76127 4.62056
rclavicle -3.89618e-014 -9.06458e-014
rhumerus -24.1204 31.299 -84.5861
rradius 30.8511
rwrist -9.32457
rhand -17.6925 1.68403
rfingers 7.12502
rthumb 8.56711 -28.1222
lclavicle -3.89618e-014 -9.06458e-014
lhumerus -2.7888 -29.1847 84.4373
lradius 45.2659
lwrist 19.8427
lhand -11.8216 -10.3291
lfingers 7.12502
lthumb 14.2289 19.1635
rfemur -7.21815 -0.00872788 25.7679
rtibia 35.8344
rfoot -15.1966 -9.98322
rtoes 0.162765
lfemur -4.2881 -3.50815 -16.6235
ltibia 35.8041
lfoot -12.405 -9.67606
ltoes -20.6328
273
root 10.1089 17.419 -2.10889 180.285 75.9349 -172.129
lowerback 23.3147 -2.17598 6.71028
upperback 15.886 0.40665 3.45306
thorax 4.6057 1.39655 -0.0347416
lowerneck -5.89812 -10.8636 -4.90087
upperneck -9.68854 -13.5474 12.4394
head -0.804281 -6.73127 4.65606
rclavicle -2.38542e-015 1.90833e-014
rhumerus -24.4987 30.8504 -84.9208
rradius 30.8042
rwrist -9.37566
rhand -17.7571 1.64193
rfingers 7.12502
rthumb 8.5047 -28.1668
lclavicle -2.38542e-015 1.90833e-014
lhumerus -3.34215 -28.8028 84.6627
lradius 45.0232
lwrist 19.722
lhand -11.7315 -10.4854
lfingers 7.12502
lthumb 14.3157 19.0011
rfemur -6.64093 -0.00865992 25.9742
rtibia 35.5644
rfoot -15.3393 -10.0541
rtoes 0.431053
lfemur -4.56463 -3.62793 -16.497
ltibia 36.9507
lfoot -12.3132 -9.50901
ltoes -21.2868
